<svg xmlns="http://www.w3.org/2000/svg">
  <!-- Usage -->
  <!-- <svg class="nav-icon"><use xlink:href="assets/img/icons.svg#icon-xxx"></use></svg> -->

  <symbol id="icon-windows" viewBox="0 0 14 16">
    <path d="M5 3h1v1h-1V3zM3 3h1v1h-1V3zM1 3h1v1H1V3zM13 13H1V5h12V13zM13 4H7v-1h6V4zM14 3c0-0.55-0.45-1-1-1H1c-0.55 0-1 0.45-1 1v10c0 0.55 0.45 1 1 1h12c0.55 0 1-0.45 1-1V3z" />
  </symbol>
  <symbol id="icon-menu" viewBox="0 0 12 16">
    <path d="M11.41 9H0.59c-0.59 0-0.59-0.41-0.59-1s0-1 0.59-1h10.81c0.59 0 0.59 0.41 0.59 1s0 1-0.59 1z m0-4H0.59c-0.59 0-0.59-0.41-0.59-1s0-1 0.59-1h10.81c0.59 0 0.59 0.41 0.59 1s0 1-0.59 1zM0.59 11h10.81c0.59 0 0.59 0.41 0.59 1s0 1-0.59 1H0.59c-0.59 0-0.59-0.41-0.59-1s0-1 0.59-1z" />
  </symbol>
  <symbol id="icon-native-ui" viewBox="0 0 16 16">
    <path d="M15 2H1c-0.55 0-1 0.45-1 1v9c0 0.55 0.45 1 1 1h5.34c-0.25 0.61-0.86 1.39-2.34 2h8c-1.48-0.61-2.09-1.39-2.34-2h5.34c0.55 0 1-0.45 1-1V3c0-0.55-0.45-1-1-1z m0 9H1V3h14v8z" />
  </symbol>
  <symbol id="icon-communication" viewBox="0 0 16 16">
    <path d="M10 1c-0.17 0-0.36 0.05-0.52 0.14-1.44 0.88-4.98 3.44-6.48 3.86-1.38 0-3 0.67-3 2.5s1.63 2.5 3 2.5c0.3 0.08 0.64 0.23 1 0.41v4.59h2V11.55c1.34 0.86 2.69 1.83 3.48 2.31 0.16 0.09 0.34 0.14 0.52 0.14 0.52 0 1-0.42 1-1V2c0-0.58-0.48-1-1-1z m0 12c-0.38-0.23-0.89-0.58-1.5-1-0.16-0.11-0.33-0.22-0.5-0.34V3.31c0.16-0.11 0.31-0.2 0.47-0.31 0.61-0.41 1.16-0.77 1.53-1v11z m2-6h4v1H12v-1z m0 2l4 2v1L12 10v-1z m4-6v1L12 6v-1l4-2z" />
  </symbol>
  <symbol id="icon-system" viewBox="0 0 16 16">
    <path d="M8 5h-1v-1h1v1z m4 3h-1v1h1v-1zM5 5h-1v1h1v-1z m-1 3h-1v1h1v-1z m11-5.5l-0.5-0.5-6.5 5c-0.06-0.02-1 0-1 0-0.55 0-1 0.45-1 1v1c0 0.55 0.45 1 1 1h1c0.55 0 1-0.45 1-1v-0.92l6-5.58zM13.41 6.59c0.19 0.61 0.3 1.25 0.3 1.91 0 3.42-2.78 6.2-6.2 6.2S1.3 11.92 1.3 8.5s2.78-6.2 6.2-6.2c1.2 0 2.31 0.34 3.27 0.94l0.94-0.94c-1.19-0.81-2.64-1.3-4.2-1.3C3.36 1 0 4.36 0 8.5s3.36 7.5 7.5 7.5 7.5-3.36 7.5-7.5c0-1.03-0.2-2.02-0.59-2.91l-1 1z" />
  </symbol>
  <symbol id="icon-media" viewBox="0 0 12 16">
    <path d="M6 5h2v2H6V5z m6-0.5v9.5c0 0.55-0.45 1-1 1H1c-0.55 0-1-0.45-1-1V2c0-0.55 0.45-1 1-1h7.5l3.5 3.5z m-1 0.5L8 2H1v11l3-5 2 4 2-2 3 3V5z" />
  </symbol>
  <symbol id="icon-notification" viewBox="0 0 32 32">
    <path d="M32.047 25c0-9-8-7-8-14 0-0.58-0.056-1.076-0.158-1.498-0.526-3.532-2.88-6.366-5.93-7.23 0.027-0.123 0.041-0.251 0.041-0.382 0-1.040-0.9-1.891-2-1.891s-2 0.851-2 1.891c0 0.131 0.014 0.258 0.041 0.382-3.421 0.969-5.966 4.416-6.039 8.545-0.001 0.060-0.002 0.121-0.002 0.183 0 7-8 5-8 14 0 2.382 5.331 4.375 12.468 4.878 0.673 1.263 2.002 2.122 3.532 2.122s2.86-0.86 3.532-2.122c7.137-0.503 12.468-2.495 12.468-4.878 0-0.007-0.001-0.014-0.001-0.021l0.048 0.021zM25.82 26.691c-1.695 0.452-3.692 0.777-5.837 0.958-0.178-2.044-1.893-3.648-3.984-3.648s-3.805 1.604-3.984 3.648c-2.144-0.18-4.142-0.506-5.837-0.958-2.332-0.622-3.447-1.318-3.855-1.691 0.408-0.372 1.523-1.068 3.855-1.691 2.712-0.724 6.199-1.122 9.82-1.122s7.109 0.398 9.82 1.122c2.332 0.622 3.447 1.318 3.855 1.691-0.408 0.372-1.523 1.068-3.855 1.691z"></path>
  </symbol>

  <!-- rexfa -->
  <symbol id="icon-love" viewBox="0 0 770 88" stroke="none" stroke-width="1" fill="none" fill-rule="evenodd">
    <defs>
      <radialGradient id="svg_4" spreadMethod="pad" cx="0.5" cy="0.5" r="5.65685">
        <stop stop-color="#d0e8e8" offset="0"/>
        <stop stop-color="#2f1717" offset="1"/>
      </radialGradient>
    </defs>
    <g>
      <title>background</title>
      <rect fill="url(#svg_4)" id="canvas_background" height="90" width="302" y="-1" x="-1"/>
    </g>
    <g>
      <title>Layer 1</title>
      <text stroke="null" transform="matrix(3.467254870827873,0,0,3.088815828921973,-23.889454760901163,44.30889068261465) " xml:space="preserve" text-anchor="start" font-family="Helvetica, Arial, sans-serif" font-size="24" id="svg_1" y="3.08901" x="30.14983" stroke-opacity="null" stroke-width="0" fill="#ff8c00">Rexfa</text>
      <path id="svg_3" d="m37.53216,4.30311c-17.67324,0 -31.99999,12.53667 -31.99999,27.999c0,5.28364 1.69372,10.22144 4.60772,14.4389l-4.60772,11.78605l12.82964,-3.83927c5.34623,3.50757 11.97031,5.61532 19.17034,5.61532c17.67323,0 32.00001,-12.53672 32.00001,-28.001s-14.32678,-27.999 -32.00001,-27.999l0,0zm-5.24817,38.75136l-5.34408,6.22965l-14.69688,-17.14891l14.69469,-17.15293l5.34628,6.2439l-9.35064,10.90903l9.35064,10.91926zm16.1626,6.22153l-5.34189,-6.23779l9.35322,-10.907l-9.35322,-10.91113l5.34189,-6.2378l14.6969,17.13669l-14.6969,17.15703z" stroke-opacity="null" stroke-width="0" stroke="null" fill="#ff8c00"/>
    </g>
  </symbol>

  <!-- id (32x32) -->
  <symbol id="icon-electron" viewBox="0 0 32 32" stroke-width="1.25" stroke-linecap="round" stroke="none" fill="none" fill-rule="evenodd">
    <path stroke="null" id="svg_1" fill="#ff8c00" d="m23.25,24.90384l0,-0.26923l0,-0.40385c-0.35769,-3.76923 -3.69615,-6.73077 -7.75,-6.73077s-7.39231,2.96154 -7.75,6.59615l0,0.80769c0,1.48077 1.07308,2.69231 2.38462,2.69231l10.73077,0c1.31154,0 2.38462,-1.21154 2.38462,-2.69231zm-7.75,10.09615c-8.58462,0 -15.5,-7.80769 -15.5,-17.49999s6.91538,-17.49999 15.5,-17.49999s15.5,7.80769 15.5,17.49999s-6.91538,17.49999 -15.5,17.49999zm0,-18.98076c2.86154,0 5.12692,-2.55769 5.12692,-5.78846s-2.26538,-5.92307 -5.12692,-5.92307s-5.12692,2.69231 -5.12692,5.92307s2.26538,5.78846 5.12692,5.78846z"/>
  </symbol>
</svg>