{
    "asset" : {
        "generator" : "Khronos glTF Blender I/O v1.0.5",
        "version" : "2.0"
    },
    "scene" : 0,
    "scenes" : [
        {
            "name" : "Scene",
            "nodes" : [
                0,
                1
            ]
        }
    ],
    "nodes" : [
        {
            "name" : "Camera",
            "rotation" : [
                0.483536034822464,
                0.33687159419059753,
                -0.20870360732078552,
                0.7804827094078064
            ],
            "translation" : [
                4.990539073944092,
                3.9145002365112305,
                4.854422569274902
            ]
        },
        {
            "mesh" : 0,
            "name" : "Cube",
            "translation" : [
                0,
                0.7073596119880676,
                0
            ]
        }
    ],
    "materials" : [
        {
            "doubleSided" : true,
            "name" : "plastic",
            "pbrMetallicRoughness" : {
                "baseColorFactor" : [
                    0.5596041679382324,
                    0.5596041679382324,
                    0.5596041679382324,
                    1
                ],
                "metallicFactor" : 0.10000000149011612,
                "roughnessFactor" : 0.5
            }
        },
        {
            "doubleSided" : true,
            "name" : "screen",
            "pbrMetallicRoughness" : {
                "baseColorFactor" : [
                    0.04363762587308884,
                    0.04363762587308884,
                    0.04363762587308884,
                    1
                ],
                "metallicFactor" : 0,
                "roughnessFactor" : 0.5
            }
        }
    ],
    "meshes" : [
        {
            "name" : "Cube.002",
            "primitives" : [
                {
                    "attributes" : {
                        "POSITION" : 0,
                        "NORMAL" : 1,
                        "TEXCOORD_0" : 2
                    },
                    "indices" : 3,
                    "material" : 0
                },
                {
                    "attributes" : {
                        "POSITION" : 4,
                        "NORMAL" : 5,
                        "TEXCOORD_0" : 6
                    },
                    "indices" : 7,
                    "material" : 1
                }
            ]
        }
    ],
    "accessors" : [
        {
            "bufferView" : 0,
            "componentType" : 5126,
            "count" : 170,
            "max" : [
                0.5,
                0.75,
                0.5
            ],
            "min" : [
                -0.5,
                -0.75,
                -0.5
            ],
            "type" : "VEC3"
        },
        {
            "bufferView" : 1,
            "componentType" : 5126,
            "count" : 170,
            "type" : "VEC3"
        },
        {
            "bufferView" : 2,
            "componentType" : 5126,
            "count" : 170,
            "type" : "VEC2"
        },
        {
            "bufferView" : 3,
            "componentType" : 5123,
            "count" : 312,
            "type" : "SCALAR"
        },
        {
            "bufferView" : 4,
            "componentType" : 5126,
            "count" : 4,
            "max" : [
                0.30654215812683105,
                0.6170070171356201,
                0.3774638772010803
            ],
            "min" : [
                -0.3865421414375305,
                0.09639869630336761,
                -0.08529894798994064
            ],
            "type" : "VEC3"
        },
        {
            "bufferView" : 5,
            "componentType" : 5126,
            "count" : 4,
            "type" : "VEC3"
        },
        {
            "bufferView" : 6,
            "componentType" : 5126,
            "count" : 4,
            "type" : "VEC2"
        },
        {
            "bufferView" : 7,
            "componentType" : 5123,
            "count" : 6,
            "type" : "SCALAR"
        }
    ],
    "bufferViews" : [
        {
            "buffer" : 0,
            "byteLength" : 2040,
            "byteOffset" : 0
        },
        {
            "buffer" : 0,
            "byteLength" : 2040,
            "byteOffset" : 2040
        },
        {
            "buffer" : 0,
            "byteLength" : 1360,
            "byteOffset" : 4080
        },
        {
            "buffer" : 0,
            "byteLength" : 624,
            "byteOffset" : 5440
        },
        {
            "buffer" : 0,
            "byteLength" : 48,
            "byteOffset" : 6064
        },
        {
            "buffer" : 0,
            "byteLength" : 48,
            "byteOffset" : 6112
        },
        {
            "buffer" : 0,
            "byteLength" : 32,
            "byteOffset" : 6160
        },
        {
            "buffer" : 0,
            "byteLength" : 12,
            "byteOffset" : 6192
        }
    ],
    "buffers" : [
        {
            "byteLength" : 6204,
            "uri" : "data:application/octet-stream;base64,"
        }
    ]
}
